<svg version="1.1" id="Layer_1" xmlns="http://www.w3.org/2000/svg" xmlns:xlink="http://www.w3.org/1999/xlink" x="0px" y="0px"
	 width="100%" viewBox="0 0 1024 500" enable-background="new 0 0 1024 500" xml:space="preserve">
<path fill="#024EAE" opacity="1.000000" stroke="none" 
	d="
M978.000000,1.000002 
	C993.655151,1.000000 1009.310303,1.000000 1024.958496,1.000002 
	C1024.951416,167.666672 1024.951416,334.333344 1024.951416,501.000000 
	C1009.247559,501.000000 993.592468,501.000000 977.468628,500.531342 
	C977.000000,415.310913 977.000000,330.559143 977.000000,245.807373 
	C977.000000,167.166443 976.989014,88.525513 977.042175,9.884624 
	C977.044128,6.922869 977.666687,3.961534 978.000000,1.000002 
z"/>
<path fill="#58D8E3" opacity="1.000000" stroke="none" 
	d="
M37.000000,1.000000 
	C51.020893,1.000000 65.041786,1.000000 79.531342,1.468657 
	C80.000015,72.034920 79.961639,142.132599 80.103600,212.229919 
	C80.111404,216.086578 81.618553,219.940201 82.397659,224.156372 
	C77.150375,248.650208 77.471809,272.519653 85.408829,296.118744 
	C84.368172,298.611359 83.090469,300.994415 83.086563,303.379608 
	C82.978554,369.252930 83.000023,435.126495 83.000000,501.000000 
	C67.979103,501.000000 52.958210,501.000000 37.468666,500.531342 
	C37.000008,333.708466 37.000004,167.354233 37.000000,1.000000 
z"/>
<path fill="#146AB9" opacity="1.000000" stroke="none" 
	d="
M782.000000,1.000003 
	C797.020874,1.000000 812.041809,1.000000 827.531372,1.468657 
	C828.000000,77.548309 827.981995,153.159332 828.064758,228.770248 
	C828.068115,231.846237 829.021790,234.921173 829.417725,238.302338 
	C827.515076,243.057190 825.241699,247.377716 824.023376,251.977707 
	C818.717285,272.012421 819.849304,291.700165 827.893433,311.242493 
	C827.422180,317.381195 826.935974,323.130920 826.840820,328.887115 
	C826.686157,338.250214 826.787537,347.617554 826.780273,356.983093 
	C826.772949,366.362152 826.766418,375.741180 826.756775,385.120239 
	C826.747314,394.323059 826.732239,403.525909 826.723694,412.728729 
	C826.714844,422.269928 826.699280,431.811157 826.707886,441.352356 
	C826.716187,450.555176 826.862244,459.759430 826.746460,468.960480 
	C826.612122,479.641754 826.258484,490.320282 826.000000,501.000000 
	C812.979126,501.000000 799.958191,501.000000 786.468628,500.531342 
	C786.000000,444.292572 786.005310,388.522461 785.987122,332.752350 
	C785.986023,329.319305 785.799805,325.886322 785.798767,322.133484 
	C803.942078,290.903900 802.300049,250.973099 782.020569,222.955307 
	C782.461243,220.254684 782.964600,217.961243 782.965942,215.667511 
	C783.007812,146.904633 783.011780,78.141731 782.957703,9.378882 
	C782.955505,6.585674 782.333313,3.792953 782.000000,1.000003 
z"/>
<path fill="#48BED9" opacity="1.000000" stroke="none" 
	d="
M211.000000,1.000000 
	C223.687561,1.000000 236.375122,1.000000 249.531342,1.468657 
	C250.000000,54.338310 249.999924,106.739311 250.000031,159.140305 
	C250.000076,181.265182 249.884323,203.391434 250.147583,225.513184 
	C250.180588,228.287018 252.214615,231.037048 253.178589,234.135071 
	C250.648026,239.565628 247.533600,244.450119 245.997650,249.788742 
	C239.085754,273.812897 240.534164,297.019958 253.874237,319.035248 
	C253.087738,321.870148 252.072952,324.379608 252.069077,326.890656 
	C251.979614,384.927002 252.000000,442.963531 252.000000,501.000000 
	C237.645767,501.000000 223.291550,501.000000 208.468658,500.531342 
	C207.999985,445.125275 208.031143,390.187805 207.916107,335.250641 
	C207.909744,332.217529 206.689774,329.187012 206.208160,325.863342 
	C215.681320,316.793427 221.559158,306.067657 224.944275,293.645020 
	C217.058792,289.414398 209.474457,285.345306 201.915497,280.789124 
	C201.962128,260.228088 201.983398,240.154205 202.239975,219.831024 
	C209.234177,215.385162 215.993057,211.188614 223.992035,206.222107 
	C219.147415,199.227600 214.571503,192.621002 210.076233,185.603485 
	C210.437943,182.561325 210.962189,179.930283 210.964279,177.298828 
	C211.010910,118.532578 211.000000,59.766285 211.000000,1.000000 
z"/>
<path fill="#0654B1" opacity="1.000000" stroke="none" 
	d="
M977.531372,1.000002 
	C977.666687,3.961534 977.044128,6.922869 977.042175,9.884624 
	C976.989014,88.525513 977.000000,167.166443 977.000000,245.807373 
	C977.000000,330.559143 977.000000,415.310913 977.000000,500.531342 
	C963.979126,501.000000 950.958191,501.000000 937.449463,500.620911 
	C936.804626,493.526428 936.580811,486.811737 936.508972,480.095459 
	C936.433655,473.060242 936.484558,466.023376 936.516602,458.987427 
	C936.546387,452.444458 936.644043,445.901794 936.674805,439.358826 
	C936.705566,432.806091 936.722473,426.252991 936.688293,419.700317 
	C936.640381,410.538391 936.464111,401.376617 936.482239,392.215027 
	C936.500671,382.883575 936.734741,373.552734 936.788574,364.221130 
	C936.845154,354.411346 937.038513,344.593018 936.710815,334.793854 
	C936.511047,328.819977 935.440491,322.875275 934.857544,316.576569 
	C949.910461,288.804108 949.534973,261.445770 934.865479,233.846405 
	C935.445984,231.261444 935.963867,228.987335 935.965149,226.712921 
	C936.007324,151.475296 936.000000,76.237648 936.000000,1.000000 
	C949.687561,1.000000 963.375122,1.000000 977.531372,1.000002 
z"/>
<path fill="#217FC1" opacity="1.000000" stroke="none" 
	d="
M646.000000,1.000000 
	C660.687561,1.000000 675.375122,1.000000 690.531372,1.468657 
	C691.000732,54.941807 691.001404,107.946297 690.543274,161.044617 
	C685.481567,161.138458 680.878662,161.138458 676.205078,161.138458 
	C676.205078,220.820450 676.205078,279.811096 676.205078,338.836609 
	C678.364746,338.960388 680.184509,339.064697 682.003174,339.627045 
	C682.001404,393.723389 682.000671,447.361694 682.000000,501.000000 
	C670.312439,501.000000 658.624878,501.000000 646.468628,500.531342 
	C646.000000,449.141663 646.003845,398.220642 645.989319,347.299622 
	C645.988525,344.640228 645.831665,341.980896 646.081543,339.196716 
	C654.801819,336.979980 654.815063,336.978851 654.074829,328.395599 
	C653.846313,325.745544 653.117676,323.070557 653.329041,320.464661 
	C653.792236,314.754822 651.453674,312.745331 645.999878,313.546753 
	C646.000061,209.051392 646.000000,105.025696 646.000000,1.000000 
z"/>
<path fill="#5CDEE5" opacity="1.000000" stroke="none" 
	d="
M36.531342,1.000000 
	C37.000004,167.354233 37.000008,333.708466 37.000008,500.531342 
	C25.009184,501.000000 13.018368,501.000000 1.044702,501.000000 
	C1.044702,334.333313 1.044702,167.666656 1.044702,1.000000 
	C12.747164,1.000000 24.404922,1.000000 36.531342,1.000000 
z"/>
<path fill="#3BA9D1" opacity="1.000000" stroke="none" 
	d="
M359.000000,1.000000 
	C370.020905,1.000000 381.041779,1.000000 392.531342,1.468657 
	C393.000000,7.758513 392.999969,13.579713 392.999969,19.400911 
	C393.000000,64.806305 392.969940,110.211784 393.093872,155.616837 
	C393.099731,157.767960 394.471954,159.915359 395.281128,162.524216 
	C395.371277,208.887527 395.400146,254.791138 395.394470,300.694733 
	C395.393402,309.402985 396.160217,317.953339 399.478821,326.180786 
	C398.757324,328.393890 398.050049,330.435669 398.047882,332.478149 
	C397.988037,388.652069 398.000000,444.826019 398.000000,501.000000 
	C385.645782,501.000000 373.291534,501.000000 360.468658,500.531342 
	C360.000000,439.545105 360.003113,379.027496 359.989655,318.509918 
	C359.989044,315.852936 359.836761,313.196045 359.820007,310.194305 
	C370.033813,285.270233 369.573517,261.002869 358.023132,236.749603 
	C358.534058,234.142960 358.969574,231.856522 358.970642,229.569870 
	C359.006073,153.379929 359.000000,77.189964 359.000000,1.000000 
z"/>
<path fill="#349ECD" opacity="1.000000" stroke="none" 
	d="
M473.000000,501.000000 
	C460.645782,501.000000 448.291534,501.000000 435.468658,500.531342 
	C435.001892,447.174255 435.003784,394.285797 435.424194,341.287659 
	C437.958069,340.846588 440.064301,340.430267 442.190704,340.201813 
	C446.370911,339.752625 447.713470,337.609009 446.900726,333.496643 
	C446.102753,329.459076 445.797516,325.324707 445.261444,321.234711 
	C444.329559,314.124847 444.324982,314.145508 437.434692,314.193817 
	C436.293121,314.201813 435.149689,313.947906 434.005920,313.357971 
	C434.003174,208.933914 434.001587,104.966957 434.000000,1.000000 
	C445.020905,1.000000 456.041779,1.000000 467.531342,1.468657 
	C468.000000,52.500168 467.995209,103.063019 468.013458,153.625870 
	C468.014435,156.282059 468.210907,158.938171 468.358093,162.019470 
	C468.403473,208.597214 468.417236,254.749817 468.402069,300.902435 
	C468.399078,309.976349 469.208923,318.871826 473.374115,327.629395 
	C473.187378,330.806854 473.012726,333.466888 473.011963,336.126984 
	C472.996094,391.084656 473.000000,446.042328 473.000000,501.000000 
z"/>
<path fill="#2E93C9" opacity="1.000000" stroke="none" 
	d="
M542.000000,501.000000 
	C531.312439,501.000000 520.624878,501.000000 509.468658,500.531342 
	C509.000000,451.242981 508.975830,402.423279 509.043579,353.603668 
	C509.049316,349.472290 509.669800,345.341766 510.406067,341.115173 
	C511.954712,340.857941 513.099670,340.677521 514.249634,340.538147 
	C519.137390,339.945801 520.897888,337.452515 519.790039,332.495880 
	C518.890991,328.473358 518.155212,324.288055 518.259155,320.198151 
	C518.402893,314.547943 516.242920,312.819733 510.924835,314.136078 
	C509.719299,314.434509 508.317932,313.941833 507.005676,313.356323 
	C507.003113,208.932907 507.001556,104.966454 507.000000,1.000000 
	C518.354248,1.000000 529.708435,1.000000 541.531372,1.468657 
	C542.000000,66.695976 541.949707,131.454712 542.053894,196.213211 
	C542.069641,206.001648 542.804871,215.788940 543.017151,225.830597 
	C540.713501,228.101532 538.600037,230.118637 536.395386,232.222809 
	C539.816162,237.691101 543.016602,242.807098 545.838989,248.073044 
	C544.974060,254.639542 544.228821,261.051941 544.125610,267.474670 
	C544.083557,270.093872 545.433655,272.735413 545.969421,275.634888 
	C539.317261,280.898376 535.187622,287.358459 534.037354,295.486176 
	C532.048889,309.536682 534.648499,322.290833 544.878052,332.970947 
	C543.759949,335.963684 542.119934,338.647095 542.112305,341.335175 
	C541.961609,394.556458 542.000000,447.778290 542.000000,501.000000 
z"/>
<path fill="#1C77BE" opacity="1.000000" stroke="none" 
	d="
M691.002075,160.950790 
	C691.001404,107.946297 691.000732,54.941807 691.000000,1.468657 
	C706.687561,1.000000 722.375122,1.000000 738.531372,1.468657 
	C739.000366,71.278305 739.000732,140.619308 738.642090,210.114410 
	C732.849060,212.223099 727.001099,213.468521 722.097656,216.331665 
	C717.194092,219.194855 713.235046,223.675751 707.673950,228.472214 
	C707.673950,205.114059 707.673950,183.298767 707.673950,160.950790 
	C701.607727,160.950790 696.304932,160.950790 691.002075,160.950790 
z"/>
<path fill="#1871BC" opacity="1.000000" stroke="none" 
	d="
M739.001099,209.960297 
	C739.000732,140.619308 739.000366,71.278305 739.000000,1.468657 
	C753.020874,1.000000 767.041809,1.000000 781.531311,1.000003 
	C782.333313,3.792953 782.955505,6.585674 782.957703,9.378882 
	C783.011780,78.141731 783.007812,146.904633 782.965942,215.667511 
	C782.964600,217.961243 782.461243,220.254684 781.711853,222.804596 
	C775.549316,217.502884 768.990906,213.123322 761.168396,211.776154 
	C753.890869,210.522873 746.398743,210.515945 739.001099,209.960297 
z"/>
<path fill="#54D1E0" opacity="1.000000" stroke="none" 
	d="
M82.427803,223.795227 
	C81.618553,219.940201 80.111404,216.086578 80.103600,212.229919 
	C79.961639,142.132599 80.000015,72.034920 80.000000,1.468657 
	C94.687561,1.000000 109.375122,1.000000 124.558548,1.420390 
	C125.369598,4.967820 125.956047,8.094558 125.959518,11.221943 
	C126.016502,62.609287 125.984718,113.996735 126.044502,165.384079 
	C126.047539,167.992950 126.697372,170.601074 126.787308,173.437317 
	C115.275307,177.914413 105.507805,184.344574 97.872673,193.708405 
	C90.606133,202.620209 85.172745,212.532837 82.427803,223.795227 
z"/>
<path fill="#1064B7" opacity="1.000000" stroke="none" 
	d="
M829.532715,237.996613 
	C829.021790,234.921173 828.068115,231.846237 828.064758,228.770248 
	C827.981995,153.159332 828.000000,77.548309 828.000000,1.468657 
	C840.687561,1.000000 853.375122,1.000000 866.531372,1.468657 
	C867.000000,71.653091 866.999939,141.368866 866.698120,211.305710 
	C850.537415,215.376801 837.723450,223.467407 829.532715,237.996613 
z"/>
<path fill="#45B9D7" opacity="1.000000" stroke="none" 
	d="
M253.321518,233.798111 
	C252.214615,231.037048 250.180588,228.287018 250.147583,225.513184 
	C249.884323,203.391434 250.000076,181.265182 250.000031,159.140305 
	C249.999924,106.739311 250.000000,54.338310 250.000000,1.468657 
	C262.687561,1.000000 275.375122,1.000000 288.531342,1.468657 
	C289.000000,32.742298 288.999969,63.547279 289.000000,94.352264 
	C289.000031,130.485672 288.939636,166.619400 289.125916,202.751862 
	C289.139404,205.370529 290.947144,207.979935 291.525391,210.726791 
	C275.500610,213.517151 262.785248,220.977798 253.321518,233.798111 
z"/>
<path fill="#2484C3" opacity="1.000000" stroke="none" 
	d="
M645.531372,1.000000 
	C646.000000,105.025696 646.000061,209.051392 645.608154,313.640137 
	C639.529541,313.388458 638.005615,311.730255 637.982361,305.634155 
	C637.915283,288.031891 637.978882,270.429169 637.943909,252.826736 
	C637.899475,230.465256 631.302490,220.484207 610.997314,211.540771 
	C610.822144,201.590820 610.502686,192.031769 610.518127,182.473267 
	C610.541748,167.804276 610.917542,153.135635 610.917847,138.466858 
	C610.918213,123.799171 610.519348,109.131485 610.519226,94.463799 
	C610.519165,79.794907 610.857483,65.126335 610.935059,50.457027 
	C611.022278,33.971699 610.983765,17.485704 611.000000,1.000000 
	C622.354248,1.000000 633.708435,1.000000 645.531372,1.000000 
z"/>
<path fill="#53D0E0" opacity="1.000000" stroke="none" 
	d="
M83.468658,501.000000 
	C83.000023,435.126495 82.978554,369.252930 83.086563,303.379608 
	C83.090469,300.994415 84.368172,298.611359 85.573669,296.450928 
	C90.785332,308.395752 97.112648,319.053925 108.013969,325.944092 
	C115.115166,330.432404 122.849831,333.918427 130.019516,338.178894 
	C129.492218,340.786896 129.033066,343.069244 129.031281,345.351959 
	C128.990631,397.234619 129.000000,449.117310 129.000000,501.000000 
	C113.979103,501.000000 98.958214,501.000000 83.468658,501.000000 
z"/>
<path fill="#3EAED3" opacity="1.000000" stroke="none" 
	d="
M358.531342,1.000000 
	C359.000000,77.189964 359.006073,153.379929 358.970642,229.569870 
	C358.969574,231.856522 358.534058,234.142960 357.767273,236.546295 
	C349.276947,223.621750 337.471069,215.878510 323.095032,211.399643 
	C323.455963,208.375305 323.963867,205.746582 323.965546,203.117523 
	C324.009216,135.745026 324.000000,68.372513 324.000000,1.000000 
	C335.354218,1.000000 346.708466,1.000000 358.531342,1.000000 
z"/>
<path fill="#0A5AB3" opacity="1.000000" stroke="none" 
	d="
M935.531372,1.000000 
	C936.000000,76.237648 936.007324,151.475296 935.965149,226.712921 
	C935.963867,228.987335 935.445984,231.261444 934.613403,233.645203 
	C925.915100,221.942963 914.392517,215.204681 900.833984,211.086700 
	C900.919617,208.088638 900.994690,205.594498 900.994934,203.100357 
	C901.001343,135.733566 901.000000,68.366783 901.000000,1.000000 
	C912.354248,1.000000 923.708435,1.000000 935.531372,1.000000 
z"/>
<path fill="#39A4CF" opacity="1.000000" stroke="none" 
	d="
M433.531342,1.000000 
	C434.001587,104.966957 434.003174,208.933914 433.656433,313.350677 
	C427.048615,311.183167 427.273254,305.569427 427.266541,300.252899 
	C427.210571,255.941177 427.237976,211.629364 427.221771,167.317581 
	C427.221069,165.396957 427.041046,163.476410 426.924927,161.165222 
	C419.586151,161.165222 412.782288,161.066635 405.983307,161.205276 
	C402.387115,161.278625 398.799408,161.764755 395.207886,162.064514 
	C394.471954,159.915359 393.099731,157.767960 393.093872,155.616837 
	C392.969940,110.211784 393.000000,64.806305 392.999969,19.400911 
	C392.999969,13.579713 393.000000,7.758513 393.000000,1.468657 
	C406.354218,1.000000 419.708466,1.000000 433.531342,1.000000 
z"/>
<path fill="#2A8EC7" opacity="1.000000" stroke="none" 
	d="
M543.207336,225.576752 
	C542.804871,215.788940 542.069641,206.001648 542.053894,196.213211 
	C541.949707,131.454712 542.000000,66.695976 542.000000,1.468657 
	C553.354248,1.000000 564.708435,1.000000 576.531372,1.468657 
	C577.000000,68.685593 576.997498,135.433868 577.008484,202.182144 
	C577.008911,205.009888 577.133972,207.837616 576.854126,210.790939 
	C564.166565,212.984879 553.113708,217.978790 543.207336,225.576752 
z"/>
<path fill="#50CADE" opacity="1.000000" stroke="none" 
	d="
M127.046066,173.209549 
	C126.697372,170.601074 126.047539,167.992950 126.044502,165.384079 
	C125.984718,113.996735 126.016502,62.609287 125.959518,11.221943 
	C125.956047,8.094558 125.369598,4.967820 125.027206,1.420390 
	C139.687561,1.000000 154.375122,1.000000 169.531342,1.468657 
	C170.001358,57.595020 170.002701,113.252724 169.551498,168.955139 
	C154.828415,167.876816 140.764236,168.814941 127.046066,173.209549 
z"/>
<path fill="#41B3D5" opacity="1.000000" stroke="none" 
	d="
M323.531342,1.000000 
	C324.000000,68.372513 324.009216,135.745026 323.965546,203.117523 
	C323.963867,205.746582 323.455963,208.375305 322.698639,211.398376 
	C312.115784,211.392914 302.018219,210.993286 291.920654,210.593643 
	C290.947144,207.979935 289.139404,205.370529 289.125916,202.751862 
	C288.939636,166.619400 289.000031,130.485672 289.000000,94.352264 
	C288.999969,63.547279 289.000000,32.742298 289.000000,1.468657 
	C300.354218,1.000000 311.708466,1.000000 323.531342,1.000000 
z"/>
<path fill="#3299CB" opacity="1.000000" stroke="none" 
	d="
M506.531342,1.000000 
	C507.001556,104.966454 507.003113,208.932907 506.655945,313.351624 
	C500.052856,311.193848 500.277618,305.588135 500.270966,300.278473 
	C500.215485,256.026825 500.239197,211.775070 500.238953,167.523346 
	C500.238953,165.585800 500.238953,163.648270 500.238953,161.594330 
	C489.157379,161.594330 478.736847,161.594330 468.316345,161.594330 
	C468.210907,158.938171 468.014435,156.282059 468.013458,153.625870 
	C467.995209,103.063019 468.000000,52.500168 468.000000,1.468657 
	C480.687561,1.000000 493.375122,1.000000 506.531342,1.000000 
z"/>
<path fill="#4CC4DB" opacity="1.000000" stroke="none" 
	d="
M170.004059,168.910431 
	C170.002701,113.252724 170.001358,57.595020 170.000000,1.468657 
	C183.354233,1.000000 196.708450,1.000000 210.531342,1.000000 
	C211.000000,59.766285 211.010910,118.532578 210.964279,177.298828 
	C210.962189,179.930283 210.437943,182.561325 209.771210,185.463867 
	C205.791855,183.128448 202.540436,179.627350 198.535706,178.094803 
	C189.218140,174.529068 179.537552,171.911942 170.004059,168.910431 
z"/>
<path fill="#0D5FB5" opacity="1.000000" stroke="none" 
	d="
M900.531372,1.000000 
	C901.000000,68.366783 901.001343,135.733566 900.994934,203.100357 
	C900.994690,205.594498 900.919617,208.088638 900.406616,211.059326 
	C888.955872,211.385452 877.977905,211.235046 866.999939,211.084641 
	C866.999939,141.368866 867.000000,71.653091 867.000000,1.468657 
	C878.020874,1.000000 889.041809,1.000000 900.531372,1.000000 
z"/>
<path fill="#2789C5" opacity="1.000000" stroke="none" 
	d="
M577.200989,210.665344 
	C577.133972,207.837616 577.008911,205.009888 577.008484,202.182144 
	C576.997498,135.433868 577.000000,68.685593 577.000000,1.468657 
	C588.020874,1.000000 599.041809,1.000000 610.531372,1.000000 
	C610.983765,17.485704 611.022278,33.971699 610.935059,50.457027 
	C610.857483,65.126335 610.519165,79.794907 610.519226,94.463799 
	C610.519348,109.131485 610.918213,123.799171 610.917847,138.466858 
	C610.917542,153.135635 610.541748,167.804276 610.518127,182.473267 
	C610.502686,192.031769 610.822144,201.590820 610.591125,211.565308 
	C599.194092,211.542450 588.197571,211.103897 577.200989,210.665344 
z"/>
<path fill="#4CC5DC" opacity="1.000000" stroke="none" 
	d="
M206.034698,326.155273 
	C206.689774,329.187012 207.909744,332.217529 207.916107,335.250641 
	C208.031143,390.187805 207.999985,445.125275 208.000000,500.531342 
	C194.979111,501.000000 181.958206,501.000000 168.441467,500.579620 
	C167.630417,497.030975 167.045288,493.903076 167.040771,490.774353 
	C166.979935,448.683533 166.949692,406.592468 167.045319,364.501770 
	C167.063019,356.714539 167.669815,348.928650 168.411011,341.052002 
	C182.562775,339.393738 195.202728,335.046753 206.034698,326.155273 
z"/>
<path fill="#44B8D7" opacity="1.000000" stroke="none" 
	d="
M252.468658,501.000000 
	C252.000000,442.963531 251.979614,384.927002 252.069077,326.890656 
	C252.072952,324.379608 253.087738,321.870148 254.160797,319.226074 
	C255.955673,320.608582 257.156525,322.185059 258.497528,323.631622 
	C267.339874,333.169983 278.706909,337.859253 291.091064,341.022217 
	C291.043915,394.680084 291.021942,447.840057 291.000000,501.000000 
	C278.312439,501.000000 265.624878,501.000000 252.468658,501.000000 
z"/>
<path fill="#1064B7" opacity="1.000000" stroke="none" 
	d="
M826.468689,501.000000 
	C826.258484,490.320282 826.612122,479.641754 826.746460,468.960480 
	C826.862244,459.759430 826.716187,450.555176 826.707886,441.352356 
	C826.699280,431.811157 826.714844,422.269928 826.723694,412.728729 
	C826.732239,403.525909 826.747314,394.323059 826.756775,385.120239 
	C826.766418,375.741180 826.772949,366.362152 826.780273,356.983093 
	C826.787537,347.617554 826.686157,338.250214 826.840820,328.887115 
	C826.935974,323.130920 827.422180,317.381195 828.169739,311.466125 
	C832.279297,316.430481 834.982971,322.923370 839.845642,326.371948 
	C847.630310,331.892731 856.846741,335.394653 865.157471,340.072327 
	C864.571289,342.667328 864.038391,344.939697 864.036316,347.212555 
	C863.989075,398.475006 864.000000,449.737518 864.000000,501.000000 
	C851.645752,501.000000 839.291565,501.000000 826.468689,501.000000 
z"/>
<path fill="#0A5AB3" opacity="1.000000" stroke="none" 
	d="
M934.761108,316.917450 
	C935.440491,322.875275 936.511047,328.819977 936.710815,334.793854 
	C937.038513,344.593018 936.845154,354.411346 936.788574,364.221130 
	C936.734741,373.552734 936.500671,382.883575 936.482239,392.215027 
	C936.464111,401.376617 936.640381,410.538391 936.688293,419.700317 
	C936.722473,426.252991 936.705566,432.806091 936.674805,439.358826 
	C936.644043,445.901794 936.546387,452.444458 936.516602,458.987427 
	C936.484558,466.023376 936.433655,473.060242 936.508972,480.095459 
	C936.580811,486.811737 936.804626,493.526428 936.980835,500.620911 
	C924.979126,501.000000 912.958191,501.000000 900.468628,500.531342 
	C899.999878,446.705017 899.999756,393.347351 900.314331,339.787689 
	C914.791687,336.223633 926.135132,328.616394 934.761108,316.917450 
z"/>
<path fill="#50CADE" opacity="1.000000" stroke="none" 
	d="
M168.004730,341.142120 
	C167.669815,348.928650 167.063019,356.714539 167.045319,364.501770 
	C166.949692,406.592468 166.979935,448.683533 167.040771,490.774353 
	C167.045288,493.903076 167.630417,497.030975 167.972809,500.579620 
	C155.312439,501.000000 142.624878,501.000000 129.468658,501.000000 
	C129.000000,449.117310 128.990631,397.234619 129.031281,345.351959 
	C129.033066,343.069244 129.492218,340.786896 130.403900,338.197510 
	C143.165131,341.429321 155.565079,341.511047 168.004730,341.142120 
z"/>
<path fill="#1770BB" opacity="1.000000" stroke="none" 
	d="
M785.699707,322.453308 
	C785.799805,325.886322 785.986023,329.319305 785.987122,332.752350 
	C786.005310,388.522461 786.000000,444.292572 786.000000,500.531342 
	C773.979126,501.000000 761.958191,501.000000 749.468872,500.580139 
	C749.179993,498.010925 749.528687,495.860260 749.511963,493.712433 
	C749.397278,479.056122 749.065857,464.400330 749.075562,449.744537 
	C749.087097,432.454071 749.512085,415.163757 749.500977,397.873535 
	C749.488892,379.084991 749.181763,360.296631 749.430847,341.387268 
	C764.668884,340.450409 776.523865,334.003967 785.699707,322.453308 
z"/>
<path fill="#37A3CF" opacity="1.000000" stroke="none" 
	d="
M435.005707,341.397369 
	C435.003784,394.285797 435.001892,447.174255 435.000000,500.531342 
	C422.979095,501.000000 410.958221,501.000000 398.468658,501.000000 
	C398.000000,444.826019 397.988037,388.652069 398.047882,332.478149 
	C398.050049,330.435669 398.757324,328.393890 399.694153,326.462646 
	C402.410156,329.146088 404.238037,332.119537 406.786652,334.217468 
	C414.996857,340.975800 424.952698,341.521515 435.005707,341.397369 
z"/>
<path fill="#3EAED3" opacity="1.000000" stroke="none" 
	d="
M359.755127,310.539093 
	C359.836761,313.196045 359.989044,315.852936 359.989655,318.509918 
	C360.003113,379.027496 360.000000,439.545105 360.000000,500.531342 
	C348.645782,501.000000 337.291534,501.000000 325.469788,500.585388 
	C325.145172,497.708344 325.389496,495.246857 325.411499,492.783325 
	C325.472961,485.906189 325.451691,479.028168 325.445770,472.150513 
	C325.437866,462.984436 325.416748,453.818329 325.395508,444.652252 
	C325.373840,435.315277 325.317841,425.978241 325.328766,416.641296 
	C325.336426,410.095612 325.491364,403.549805 325.472626,397.004364 
	C325.445892,387.667786 325.316223,378.331512 325.238159,368.995056 
	C325.154602,359.003876 325.079834,349.012634 325.304504,338.823364 
	C340.889038,334.003479 352.055878,324.379242 359.755127,310.539093 
z"/>
<path fill="#3098CB" opacity="1.000000" stroke="none" 
	d="
M510.004700,341.210846 
	C509.669800,345.341766 509.049316,349.472290 509.043579,353.603668 
	C508.975830,402.423279 509.000000,451.242981 509.000000,500.531342 
	C497.312439,501.000000 485.624878,501.000000 473.468658,501.000000 
	C473.000000,446.042328 472.996094,391.084656 473.011963,336.126984 
	C473.012726,333.466888 473.187378,330.806854 473.612671,327.898376 
	C476.131409,330.040924 478.035065,332.796509 480.556976,334.756714 
	C489.285767,341.541290 499.626617,341.598480 510.004700,341.210846 
z"/>
<path fill="#2789C5" opacity="1.000000" stroke="none" 
	d="
M613.000000,501.000000 
	C601.645752,501.000000 590.291565,501.000000 578.468628,500.531342 
	C578.002014,447.158112 578.004028,394.253510 578.419067,341.241272 
	C590.919556,339.989868 600.532898,334.843262 606.725525,324.040771 
	C607.223022,323.173065 608.306519,322.641296 609.117737,321.953430 
	C609.798645,322.768372 610.621643,323.503693 611.131958,324.414246 
	C612.337585,326.565765 613.394470,328.800629 614.311401,331.445587 
	C613.740906,334.661469 613.050659,337.433197 613.047363,340.205719 
	C612.983459,393.803741 613.000000,447.401886 613.000000,501.000000 
z"/>
<path fill="#2A8EC7" opacity="1.000000" stroke="none" 
	d="
M578.005981,341.348938 
	C578.004028,394.253510 578.002014,447.158112 578.000000,500.531342 
	C566.312439,501.000000 554.624878,501.000000 542.468628,501.000000 
	C542.000000,447.778290 541.961609,394.556458 542.112305,341.335175 
	C542.119934,338.647095 543.759949,335.963684 545.198792,333.112701 
	C555.266846,340.508301 566.439270,341.685333 578.005981,341.348938 
z"/>
<path fill="#0D5FB5" opacity="1.000000" stroke="none" 
	d="
M899.999695,339.989685 
	C899.999756,393.347351 899.999878,446.705017 900.000000,500.531342 
	C888.312439,501.000000 876.624878,501.000000 864.468628,501.000000 
	C864.000000,449.737518 863.989075,398.475006 864.036316,347.212555 
	C864.038391,344.939697 864.571289,342.667328 865.561829,340.074585 
	C867.800903,340.073639 869.339600,340.687103 870.868591,340.664032 
	C880.580139,340.517517 890.289551,340.230438 899.999695,339.989685 
z"/>
<path fill="#1E7ABF" opacity="1.000000" stroke="none" 
	d="
M682.468628,501.000000 
	C682.000671,447.361694 682.001404,393.723389 682.467285,339.559845 
	C691.023560,339.034607 699.114624,339.034607 708.072876,339.034607 
	C708.072876,333.519714 708.072876,328.550018 708.072876,323.580292 
	C708.497070,323.470917 708.921326,323.361542 709.345520,323.252167 
	C712.323425,326.465149 715.301392,329.678131 717.897095,333.041504 
	C717.009949,335.339630 716.067261,337.486664 716.064026,339.635162 
	C715.982544,393.423340 716.000000,447.211700 716.000000,501.000000 
	C704.979126,501.000000 693.958191,501.000000 682.468628,501.000000 
z"/>
<path fill="#41B3D5" opacity="1.000000" stroke="none" 
	d="
M325.001221,339.021423 
	C325.079834,349.012634 325.154602,359.003876 325.238159,368.995056 
	C325.316223,378.331512 325.445892,387.667786 325.472626,397.004364 
	C325.491364,403.549805 325.336426,410.095612 325.328766,416.641296 
	C325.317841,425.978241 325.373840,435.315277 325.395508,444.652252 
	C325.416748,453.818329 325.437866,462.984436 325.445770,472.150513 
	C325.451691,479.028168 325.472961,485.906189 325.411499,492.783325 
	C325.389496,495.246857 325.145172,497.708344 325.001160,500.585388 
	C313.979095,501.000000 302.958221,501.000000 291.468658,501.000000 
	C291.021942,447.840057 291.043915,394.680084 291.553284,341.047668 
	C303.027496,340.057281 314.014374,339.539337 325.001221,339.021423 
z"/>
<path fill="#1B75BD" opacity="1.000000" stroke="none" 
	d="
M716.468628,501.000000 
	C716.000000,447.211700 715.982544,393.423340 716.064026,339.635162 
	C716.067261,337.486664 717.009949,335.339630 718.218384,333.140900 
	C721.664368,334.708801 724.226501,337.106262 727.185303,337.792023 
	C734.359680,339.454926 741.718750,340.321045 749.003296,341.508209 
	C749.181763,360.296631 749.488892,379.084991 749.500977,397.873535 
	C749.512085,415.163757 749.087097,432.454071 749.075562,449.744537 
	C749.065857,464.400330 749.397278,479.056122 749.511963,493.712433 
	C749.528687,495.860260 749.179993,498.010925 749.000183,500.580139 
	C738.312439,501.000000 727.624878,501.000000 716.468628,501.000000 
z"/>
<path fill="#2484C3" opacity="1.000000" stroke="none" 
	d="
M613.468628,501.000000 
	C613.000000,447.401886 612.983459,393.803741 613.047363,340.205719 
	C613.050659,337.433197 613.740906,334.661469 614.577026,331.683167 
	C619.047913,333.936493 622.785889,337.601501 627.123169,338.562988 
	C633.093933,339.886505 639.517822,339.166229 645.747559,339.321533 
	C645.831665,341.980896 645.988525,344.640228 645.989319,347.299622 
	C646.003845,398.220642 646.000000,449.141663 646.000000,500.531342 
	C635.312439,501.000000 624.624878,501.000000 613.468628,501.000000 
z"/>
<path fill="#FEFFFF" opacity="1.000000" stroke="none" 
	d="
M168.410995,341.052002 
	C155.565079,341.511047 143.165131,341.429321 130.685089,337.872040 
	C122.849831,333.918427 115.115166,330.432404 108.013969,325.944092 
	C97.112648,319.053925 90.785332,308.395752 85.930267,296.342407 
	C77.471809,272.519653 77.150375,248.650208 82.397659,224.156372 
	C85.172745,212.532837 90.606133,202.620209 97.872673,193.708405 
	C105.507805,184.344574 115.275307,177.914413 126.787308,173.437317 
	C140.764236,168.814941 154.828415,167.876816 169.551498,168.955139 
	C179.537552,171.911942 189.218140,174.529068 198.535706,178.094803 
	C202.540436,179.627350 205.791855,183.128448 209.690552,185.874786 
	C214.571503,192.621002 219.147415,199.227600 223.992035,206.222107 
	C215.993057,211.188614 209.234177,215.385162 201.901917,219.906189 
	C198.683670,221.797134 196.385239,222.940826 194.598053,218.873840 
	C188.067169,204.011963 175.437424,195.662186 152.638519,197.440796 
	C133.411484,199.445297 121.380493,209.756042 116.554436,227.902847 
	C111.588753,246.574661 111.680244,265.447357 117.197876,284.005981 
	C122.313049,301.210968 136.063339,311.681519 153.376526,312.254639 
	C175.044189,314.633911 190.100372,304.976288 196.665695,284.550690 
	C197.637970,281.525787 198.835236,280.288696 201.890121,281.276245 
	C209.474457,285.345306 217.058792,289.414398 224.944275,293.645020 
	C221.559158,306.067657 215.681320,316.793427 206.208176,325.863342 
	C195.202728,335.046753 182.562775,339.393738 168.410995,341.052002 
z"/>
<path fill="#FDFEFE" opacity="1.000000" stroke="none" 
	d="
M749.430908,341.387268 
	C741.718750,340.321045 734.359680,339.454926 727.185303,337.792023 
	C724.226501,337.106262 721.664368,334.708801 718.600586,332.990479 
	C715.301392,329.678131 712.323425,326.465149 709.345520,323.252167 
	C708.921326,323.361542 708.497070,323.470917 708.072876,323.580292 
	C708.072876,328.550018 708.072876,333.519714 708.072876,339.034607 
	C699.114624,339.034607 691.023560,339.034607 682.468384,339.101807 
	C680.184509,339.064697 678.364746,338.960388 676.205078,338.836609 
	C676.205078,279.811096 676.205078,220.820450 676.205078,161.138458 
	C680.878662,161.138458 685.481567,161.138458 690.543274,161.044617 
	C696.304932,160.950790 701.607727,160.950790 707.673950,160.950790 
	C707.673950,183.298767 707.673950,205.114059 707.673950,228.472214 
	C713.235046,223.675751 717.194092,219.194855 722.097656,216.331665 
	C727.001099,213.468521 732.849060,212.223099 738.642090,210.114410 
	C746.398743,210.515945 753.890869,210.522873 761.168396,211.776154 
	C768.990906,213.123322 775.549316,217.502884 781.540527,223.211639 
	C802.300049,250.973099 803.942078,290.903900 785.798767,322.133484 
	C776.523865,334.003967 764.668884,340.450409 749.430908,341.387268 
M707.600159,269.145813 
	C706.749084,278.874329 707.277893,288.476257 711.015442,297.612976 
	C715.783325,309.268829 725.451050,314.902069 738.925415,314.199890 
	C750.988464,313.571320 759.479004,307.034882 762.765808,295.024353 
	C766.304871,282.092621 766.253174,268.964874 762.718140,256.033356 
	C760.513000,247.966980 755.737671,241.765228 747.542419,238.697113 
	C731.062317,232.527359 715.007202,240.231339 709.859619,257.026154 
	C708.749207,260.649017 708.405640,264.506897 707.600159,269.145813 
z"/>
<path fill="#FDFEFE" opacity="1.000000" stroke="none" 
	d="
M900.314331,339.787689 
	C890.289551,340.230438 880.580139,340.517517 870.868591,340.664032 
	C869.339600,340.687103 867.800903,340.073639 865.862305,339.752197 
	C856.846741,335.394653 847.630310,331.892731 839.845642,326.371948 
	C834.982971,322.923370 832.279297,316.430481 828.330444,311.080078 
	C819.849304,291.700165 818.717285,272.012421 824.023376,251.977707 
	C825.241699,247.377716 827.515076,243.057190 829.417786,238.302322 
	C837.723450,223.467407 850.537415,215.376801 866.698120,211.305710 
	C877.977905,211.235046 888.955872,211.385452 900.361206,211.563232 
	C914.392517,215.204681 925.915100,221.942963 934.309937,233.955902 
	C949.534973,261.445770 949.910461,288.804108 934.857544,316.576569 
	C926.135132,328.616394 914.791687,336.223633 900.314331,339.787689 
M877.142395,237.220612 
	C865.261353,239.353775 858.495422,246.816467 855.725281,258.167603 
	C852.877136,269.838287 852.745544,281.621338 855.798523,293.251129 
	C859.607178,307.759460 868.866211,314.512634 883.858765,314.273926 
	C898.528992,314.040314 907.651611,306.621368 910.990295,292.002625 
	C913.512146,280.960632 913.479614,269.849182 910.942444,258.828796 
	C908.283813,247.280609 901.582092,239.414337 889.472229,237.365112 
	C885.747192,236.734787 881.842529,237.165421 877.142395,237.220612 
z"/>
<path fill="#FEFEFF" opacity="1.000000" stroke="none" 
	d="
M325.304474,338.823364 
	C314.014374,339.539337 303.027496,340.057281 291.578430,340.549744 
	C278.706909,337.859253 267.339874,333.169983 258.497528,323.631622 
	C257.156525,322.185059 255.955673,320.608582 254.403427,318.901367 
	C240.534164,297.019958 239.085754,273.812897 245.997650,249.788742 
	C247.533600,244.450119 250.648026,239.565628 253.178589,234.135071 
	C262.785248,220.977798 275.500610,213.517151 291.525421,210.726791 
	C302.018219,210.993286 312.115784,211.392914 322.609741,211.793823 
	C337.471069,215.878510 349.276947,223.621750 357.489288,236.866394 
	C369.573517,261.002869 370.033813,285.270233 359.820007,310.194305 
	C352.055878,324.379242 340.889038,334.003479 325.304474,338.823364 
M325.518097,305.980743 
	C327.204712,303.129364 329.373047,300.454437 330.493195,297.395599 
	C334.969940,285.170563 335.096375,272.559784 332.401154,259.989166 
	C329.085388,244.524231 319.854340,237.004379 304.903900,236.910080 
	C289.386108,236.812210 280.180481,244.040451 276.612701,259.626160 
	C274.089233,270.649841 274.089569,281.790192 276.897552,292.785248 
	C282.517883,314.791870 308.331512,322.110901 325.518097,305.980743 
z"/>
<path fill="#4EC7DC" opacity="1.000000" stroke="none" 
	d="
M201.915497,280.789124 
	C198.835236,280.288696 197.637970,281.525787 196.665695,284.550690 
	C190.100372,304.976288 175.044189,314.633911 153.378387,311.775452 
	C153.006149,273.277008 153.015961,235.379257 153.025787,197.481522 
	C175.437424,195.662186 188.067169,204.011963 194.598053,218.873840 
	C196.385239,222.940826 198.683670,221.797134 201.666595,220.155487 
	C201.983398,240.154205 201.962128,260.228088 201.915497,280.789124 
z"/>
<path fill="#FDFEFF" opacity="1.000000" stroke="none" 
	d="
M646.081543,339.196716 
	C639.517822,339.166229 633.093933,339.886505 627.123169,338.562988 
	C622.785889,337.601501 619.047913,333.936493 614.777100,331.239380 
	C613.394470,328.800629 612.337585,326.565765 611.131958,324.414246 
	C610.621643,323.503693 609.798645,322.768372 609.117737,321.953430 
	C608.306519,322.641296 607.223022,323.173065 606.725525,324.040771 
	C600.532898,334.843262 590.919556,339.989868 578.419067,341.241272 
	C566.439270,341.685333 555.266846,340.508301 545.436890,332.805573 
	C534.648499,322.290833 532.048889,309.536682 534.037354,295.486176 
	C535.187622,287.358459 539.317261,280.898376 546.300537,275.505859 
	C555.953857,271.719604 564.977356,267.952515 574.272339,265.057129 
	C582.176575,262.594971 590.544189,261.608582 598.427246,259.093384 
	C605.313538,256.896271 607.693848,252.414612 606.916504,246.193130 
	C606.190247,240.380737 602.199768,236.911957 595.171875,235.922058 
	C580.099792,233.799103 567.311279,238.815308 556.069519,248.509491 
	C550.480896,253.328720 550.543640,253.401459 546.216980,247.923111 
	C543.016602,242.807098 539.816162,237.691101 536.395386,232.222809 
	C538.600037,230.118637 540.713501,228.101532 543.017151,225.830597 
	C553.113708,217.978790 564.166565,212.984879 576.854126,210.790939 
	C588.197571,211.103897 599.194092,211.542450 610.596802,211.956451 
	C631.302490,220.484207 637.899475,230.465256 637.943909,252.826736 
	C637.978882,270.429169 637.915283,288.031891 637.982361,305.634155 
	C638.005615,311.730255 639.529541,313.388458 645.607910,314.109802 
	C651.453674,312.745331 653.792236,314.754822 653.329041,320.464661 
	C653.117676,323.070557 653.846313,325.745544 654.074829,328.395599 
	C654.815063,336.978851 654.801819,336.979980 646.081543,339.196716 
M597.609802,313.215302 
	C606.459351,305.702118 610.873352,287.732910 606.829773,277.253723 
	C598.145874,279.474701 589.546692,281.649933 580.963440,283.886536 
	C578.879089,284.429688 576.776611,285.009979 574.804016,285.856445 
	C567.388672,289.038666 564.093750,295.190308 565.125916,303.641846 
	C566.059753,311.288544 570.741943,315.893433 578.860291,317.202484 
	C585.358093,318.250214 591.451355,317.289032 597.609802,313.215302 
z"/>
<path fill="#FCFEFE" opacity="1.000000" stroke="none" 
	d="
M435.424194,341.287659 
	C424.952698,341.521515 414.996857,340.975800 406.786652,334.217468 
	C404.238037,332.119537 402.410156,329.146088 400.036987,326.291595 
	C396.160217,317.953339 395.393402,309.402985 395.394470,300.694733 
	C395.400146,254.791138 395.371277,208.887527 395.281128,162.524231 
	C398.799408,161.764755 402.387115,161.278625 405.983307,161.205276 
	C412.782288,161.066635 419.586151,161.165222 426.924927,161.165222 
	C427.041046,163.476410 427.221069,165.396957 427.221771,167.317581 
	C427.237976,211.629364 427.210571,255.941177 427.266541,300.252899 
	C427.273254,305.569427 427.048615,311.183167 433.657593,313.807739 
	C435.149689,313.947906 436.293121,314.201813 437.434692,314.193817 
	C444.324982,314.145508 444.329559,314.124847 445.261444,321.234711 
	C445.797516,325.324707 446.102753,329.459076 446.900726,333.496643 
	C447.713470,337.609009 446.370911,339.752625 442.190704,340.201813 
	C440.064301,340.430267 437.958069,340.846588 435.424194,341.287659 
z"/>
<path fill="#FCFEFE" opacity="1.000000" stroke="none" 
	d="
M510.406067,341.115173 
	C499.626617,341.598480 489.285767,341.541290 480.556976,334.756714 
	C478.035065,332.796509 476.131409,330.040924 473.705719,327.380981 
	C469.208923,318.871826 468.399078,309.976349 468.402069,300.902435 
	C468.417236,254.749817 468.403473,208.597214 468.358093,162.019470 
	C478.736847,161.594330 489.157379,161.594330 500.238953,161.594330 
	C500.238953,163.648270 500.238953,165.585800 500.238953,167.523346 
	C500.239197,211.775070 500.215485,256.026825 500.270966,300.278473 
	C500.277618,305.588135 500.052856,311.193848 506.656982,313.808563 
	C508.317932,313.941833 509.719299,314.434509 510.924835,314.136078 
	C516.242920,312.819733 518.402893,314.547943 518.259155,320.198151 
	C518.155212,324.288055 518.890991,328.473358 519.790039,332.495880 
	C520.897888,337.452515 519.137390,339.945801 514.249634,340.538147 
	C513.099670,340.677521 511.954712,340.857941 510.406067,341.115173 
z"/>
<path fill="#2B8DC7" opacity="1.000000" stroke="none" 
	d="
M545.838989,248.073044 
	C550.543640,253.401459 550.480896,253.328720 556.069519,248.509491 
	C567.311279,238.815308 580.099792,233.799103 595.171875,235.922058 
	C602.199768,236.911957 606.190247,240.380737 606.916504,246.193130 
	C607.693848,252.414612 605.313538,256.896271 598.427246,259.093384 
	C590.544189,261.608582 582.176575,262.594971 574.272339,265.057129 
	C564.977356,267.952515 555.953857,271.719604 546.481445,275.237732 
	C545.433655,272.735413 544.083557,270.093872 544.125610,267.474670 
	C544.228821,261.051941 544.974060,254.639542 545.838989,248.073044 
z"/>
<path fill="#52CDDF" opacity="1.000000" stroke="none" 
	d="
M152.638519,197.440796 
	C153.015961,235.379257 153.006149,273.277008 152.994476,311.653931 
	C136.063339,311.681519 122.313049,301.210968 117.197876,284.005981 
	C111.680244,265.447357 111.588753,246.574661 116.554436,227.902847 
	C121.380493,209.756042 133.411484,199.445297 152.638519,197.440796 
z"/>
<path fill="#1C75BE" opacity="1.000000" stroke="none" 
	d="
M707.654541,268.701172 
	C708.405640,264.506897 708.749207,260.649017 709.859619,257.026154 
	C715.007202,240.231339 731.062317,232.527359 747.542419,238.697113 
	C755.737671,241.765228 760.513000,247.966980 762.718140,256.033356 
	C766.253174,268.964874 766.304871,282.092621 762.765808,295.024353 
	C759.479004,307.034882 750.988464,313.571320 738.925415,314.199890 
	C725.451050,314.902069 715.783325,309.268829 711.015442,297.612976 
	C707.277893,288.476257 706.749084,278.874329 707.654541,268.701172 
z"/>
<path fill="#0E60B5" opacity="1.000000" stroke="none" 
	d="
M877.581299,237.165436 
	C881.842529,237.165421 885.747192,236.734787 889.472229,237.365112 
	C901.582092,239.414337 908.283813,247.280609 910.942444,258.828796 
	C913.479614,269.849182 913.512146,280.960632 910.990295,292.002625 
	C907.651611,306.621368 898.528992,314.040314 883.858765,314.273926 
	C868.866211,314.512634 859.607178,307.759460 855.798523,293.251129 
	C852.745544,281.621338 852.877136,269.838287 855.725281,258.167603 
	C858.495422,246.816467 865.261353,239.353775 877.581299,237.165436 
z"/>
<path fill="#43B4D5" opacity="1.000000" stroke="none" 
	d="
M325.272888,306.246765 
	C308.331512,322.110901 282.517883,314.791870 276.897552,292.785248 
	C274.089569,281.790192 274.089233,270.649841 276.612701,259.626160 
	C280.180481,244.040451 289.386108,236.812210 304.903900,236.910080 
	C319.854340,237.004379 329.085388,244.524231 332.401154,259.989166 
	C335.096375,272.559784 334.969940,285.170563 330.493195,297.395599 
	C329.373047,300.454437 327.204712,303.129364 325.272888,306.246765 
z"/>
<path fill="#2C8CC6" opacity="1.000000" stroke="none" 
	d="
M597.321594,313.440552 
	C591.451355,317.289032 585.358093,318.250214 578.860291,317.202484 
	C570.741943,315.893433 566.059753,311.288544 565.125916,303.641846 
	C564.093750,295.190308 567.388672,289.038666 574.804016,285.856445 
	C576.776611,285.009979 578.879089,284.429688 580.963440,283.886536 
	C589.546692,281.649933 598.145874,279.474701 606.829773,277.253723 
	C610.873352,287.732910 606.459351,305.702118 597.321594,313.440552 
z"/>
</svg>